<?xml version="1.0" encoding="UTF-8" standalone="no"?>
<svg
   xmlns:dc="http://purl.org/dc/elements/1.1/"
   xmlns:cc="http://creativecommons.org/ns#"
   xmlns:rdf="http://www.w3.org/1999/02/22-rdf-syntax-ns#"
   xmlns:svg="http://www.w3.org/2000/svg"
   xmlns="http://www.w3.org/2000/svg"
   xmlns:sodipodi="http://sodipodi.sourceforge.net/DTD/sodipodi-0.dtd"
   xmlns:inkscape="http://www.inkscape.org/namespaces/inkscape"
   version="1.1"
   id="svg62"
   width="101.79778"
   height="108.32724"
   viewBox="0 0 101.79777 108.32723"
   sodipodi:docname="s9spq-logo.svg"
   inkscape:version="1.0.1 (3bc2e813f5, 2020-09-07)">
  <metadata
     id="metadata68">
    <rdf:RDF>
      <cc:Work
         rdf:about="">
        <dc:format>image/svg+xml</dc:format>
        <dc:type
           rdf:resource="http://purl.org/dc/dcmitype/StillImage" />
        <dc:title></dc:title>
      </cc:Work>
    </rdf:RDF>
  </metadata>
  <defs
     id="defs66" />
  <sodipodi:namedview
     pagecolor="#ffffff"
     bordercolor="#666666"
     borderopacity="1"
     objecttolerance="10"
     gridtolerance="10"
     guidetolerance="10"
     inkscape:pageopacity="0"
     inkscape:pageshadow="2"
     inkscape:window-width="1545"
     inkscape:window-height="752"
     id="namedview64"
     showgrid="false"
     inkscape:zoom="2.74"
     inkscape:cx="-73.797697"
     inkscape:cy="12.847171"
     inkscape:window-x="375"
     inkscape:window-y="123"
     inkscape:window-maximized="0"
     inkscape:current-layer="g70"
     fit-margin-top="0"
     fit-margin-left="0"
     fit-margin-right="0"
     fit-margin-bottom="0" />
  <g
     inkscape:groupmode="layer"
     inkscape:label="Image"
     id="g70"
     transform="translate(-103.36339,-93.357207)">
    <g
       id="g225"
       transform="matrix(3.4466827,0,0,2.878051,103.36339,93.080855)">
      <g
         id="g169">
	<path
   d="M 12.646,10.335 10.227,23.029 H 10.225 L 0,24.544 13.643,29.44 25.789,27.808 29.535,11.991 Z M 10.247,27.53 6.899,26.253 8.512,26.036 12.269,27.292 Z M 24.68,26.48 11.168,22.659 13.338,11.451 27.834,13.155 Z M 8.535,9.507 h 1.61 v 1.532 H 8.535 Z M 8.954,7.355 H 7.337 C 7.352,7.114 7.401,6.873 7.484,6.638 7.566,6.405 7.692,6.195 7.862,6.008 8.033,5.823 8.251,5.672 8.517,5.558 8.783,5.441 9.107,5.382 9.488,5.382 c 0.376,0 0.694,0.05 0.952,0.152 0.258,0.1 0.467,0.23 0.627,0.386 0.16,0.158 0.278,0.331 0.352,0.519 0.075,0.188 0.117,0.368 0.128,0.538 0,0.237 -0.032,0.43 -0.093,0.576 C 11.393,7.699 11.311,7.823 11.21,7.921 11.109,8.02 10.998,8.1 10.874,8.165 10.75,8.229 10.623,8.294 10.495,8.362 10.407,8.409 10.335,8.455 10.278,8.501 10.221,8.548 10.176,8.596 10.146,8.647 10.116,8.699 10.094,8.758 10.08,8.826 10.067,8.892 10.061,8.969 10.061,9.056 H 8.629 C 8.624,8.98 8.621,8.884 8.621,8.764 8.621,8.641 8.637,8.514 8.668,8.386 8.698,8.257 8.752,8.129 8.83,8.006 8.908,7.884 9.021,7.78 9.171,7.696 9.232,7.664 9.305,7.631 9.388,7.595 9.471,7.561 9.549,7.521 9.624,7.475 9.697,7.432 9.761,7.379 9.813,7.319 9.864,7.257 9.89,7.182 9.89,7.094 9.89,6.829 9.742,6.698 9.442,6.698 9.256,6.698 9.124,6.765 9.047,6.899 8.969,7.034 8.938,7.186 8.954,7.355 Z m 8.987,11.474 1.801,1.218 -1.158,1.715 -1.803,-1.218 z m 5.549,-2.102 c 0.061,0.297 0.061,0.58 0.002,0.849 -0.061,0.267 -0.148,0.5 -0.266,0.697 -0.179,0.268 -0.357,0.458 -0.539,0.575 -0.183,0.118 -0.363,0.193 -0.554,0.228 -0.186,0.037 -0.372,0.041 -0.561,0.021 -0.188,-0.021 -0.38,-0.044 -0.574,-0.064 -0.133,-0.017 -0.248,-0.019 -0.349,-0.009 -0.099,0.009 -0.184,0.029 -0.258,0.063 -0.074,0.036 -0.145,0.084 -0.209,0.149 -0.063,0.064 -0.129,0.146 -0.197,0.243 l -1.604,-1.082 c 0.053,-0.091 0.123,-0.2 0.215,-0.336 0.094,-0.138 0.207,-0.268 0.338,-0.388 0.133,-0.122 0.289,-0.222 0.469,-0.302 0.183,-0.082 0.388,-0.111 0.617,-0.09 0.09,0.012 0.197,0.028 0.316,0.051 0.119,0.023 0.238,0.037 0.354,0.045 0.117,0.008 0.229,-0.004 0.332,-0.035 0.104,-0.03 0.19,-0.094 0.258,-0.19 0.197,-0.297 0.133,-0.557 -0.203,-0.783 -0.207,-0.14 -0.406,-0.164 -0.596,-0.071 -0.188,0.09 -0.338,0.239 -0.447,0.44 l -1.812,-1.226 c 0.201,-0.257 0.437,-0.49 0.707,-0.689 0.271,-0.201 0.568,-0.34 0.9,-0.42 0.33,-0.079 0.688,-0.083 1.074,-0.012 0.385,0.07 0.793,0.25 1.221,0.538 0.422,0.286 0.738,0.583 0.951,0.891 0.214,0.306 0.35,0.61 0.415,0.907 z M 1.09,19.615 0.18,19.542 0.257,18.587 1.167,18.66 Z M 2.794,19.332 C 2.803,19.222 2.77,19.14 2.694,19.086 2.618,19.033 2.529,19.008 2.426,19.009 l 0.08,-0.961 c 0.143,0.021 0.281,0.062 0.418,0.123 0.134,0.06 0.253,0.146 0.356,0.256 0.101,0.108 0.18,0.246 0.236,0.41 0.056,0.163 0.076,0.358 0.057,0.586 -0.018,0.224 -0.065,0.409 -0.135,0.559 -0.073,0.147 -0.16,0.268 -0.261,0.354 -0.102,0.09 -0.211,0.15 -0.326,0.186 C 2.736,20.557 2.628,20.576 2.525,20.574 2.384,20.56 2.272,20.533 2.188,20.49 2.103,20.447 2.035,20.391 1.98,20.328 1.928,20.264 1.884,20.192 1.851,20.115 1.819,20.037 1.787,19.961 1.753,19.883 1.73,19.826 1.706,19.781 1.681,19.746 1.656,19.707 1.629,19.68 1.6,19.66 1.57,19.637 1.536,19.621 1.498,19.609 1.458,19.599 1.412,19.591 1.36,19.588 l 0.069,-0.851 c 0.047,0 0.105,0.002 0.176,0.008 0.074,0.006 0.148,0.021 0.223,0.047 0.075,0.025 0.147,0.062 0.217,0.115 0.07,0.054 0.126,0.123 0.167,0.217 0.016,0.039 0.033,0.082 0.05,0.135 0.017,0.05 0.038,0.1 0.06,0.146 0.023,0.049 0.052,0.088 0.086,0.121 0.033,0.034 0.076,0.055 0.129,0.059 0.157,0.009 0.242,-0.073 0.257,-0.253 z M 25.117,6.675 25.371,7.553 24.448,7.819 24.195,6.94 Z M 23.154,5.905 C 23.123,5.764 23.111,5.618 23.121,5.47 23.129,5.322 23.168,5.181 23.232,5.046 23.3,4.912 23.4,4.79 23.535,4.679 c 0.131,-0.11 0.309,-0.197 0.525,-0.26 0.215,-0.062 0.405,-0.085 0.569,-0.071 0.164,0.015 0.308,0.056 0.425,0.119 0.116,0.063 0.213,0.143 0.286,0.24 0.072,0.096 0.127,0.191 0.162,0.286 0.039,0.137 0.054,0.252 0.041,0.347 C 25.531,5.434 25.506,5.517 25.465,5.59 25.424,5.664 25.373,5.727 25.312,5.786 25.25,5.843 25.191,5.9 25.127,5.961 25.084,6.001 25.049,6.04 25.024,6.077 25,6.111 24.981,6.147 24.973,6.181 c -0.01,0.035 -0.014,0.073 -0.01,0.114 0.004,0.04 0.012,0.085 0.027,0.135 L 24.17,6.666 C 24.154,6.623 24.137,6.567 24.117,6.5 24.096,6.428 24.084,6.353 24.08,6.273 24.078,6.195 24.088,6.113 24.111,6.03 24.134,5.945 24.183,5.869 24.256,5.797 24.287,5.768 24.322,5.737 24.363,5.702 24.404,5.668 24.441,5.634 24.478,5.596 24.513,5.558 24.54,5.518 24.56,5.473 24.58,5.43 24.581,5.383 24.568,5.332 24.525,5.181 24.418,5.131 24.246,5.179 24.141,5.211 24.076,5.272 24.053,5.361 24.032,5.45 24.037,5.543 24.076,5.637 Z M 18.018,8.736 18.575,8.791 18.522,9.322 17.966,9.266 Z M 18.238,8.007 17.677,7.953 C 17.689,7.869 17.715,7.788 17.75,7.71 17.787,7.631 17.838,7.563 17.903,7.504 17.965,7.446 18.049,7.399 18.145,7.369 18.242,7.338 18.354,7.33 18.487,7.343 c 0.13,0.013 0.238,0.041 0.322,0.084 0.086,0.042 0.154,0.095 0.205,0.155 0.049,0.06 0.084,0.124 0.104,0.191 0.02,0.068 0.025,0.13 0.025,0.19 -0.008,0.083 -0.025,0.147 -0.054,0.196 -0.026,0.05 -0.059,0.089 -0.096,0.121 -0.039,0.028 -0.08,0.052 -0.125,0.071 -0.045,0.018 -0.093,0.036 -0.14,0.056 -0.03,0.014 -0.059,0.026 -0.08,0.041 -0.021,0.015 -0.037,0.029 -0.049,0.046 -0.014,0.017 -0.022,0.037 -0.028,0.06 -0.009,0.024 -0.013,0.05 -0.015,0.079 L 18.062,8.586 c 0,-0.028 0.002,-0.062 0.008,-0.103 0.004,-0.044 0.014,-0.086 0.027,-0.13 C 18.11,8.309 18.136,8.267 18.166,8.227 18.197,8.186 18.24,8.155 18.295,8.13 18.317,8.123 18.345,8.113 18.373,8.102 18.404,8.093 18.433,8.082 18.459,8.07 18.485,8.057 18.511,8.041 18.529,8.02 18.55,8.001 18.561,7.976 18.563,7.946 18.572,7.856 18.524,7.805 18.42,7.794 18.356,7.788 18.307,7.808 18.275,7.851 18.247,7.894 18.234,7.947 18.238,8.007 Z M 15.08,20.016 c 0.02,0.069 0.027,0.131 0.025,0.189 -0.008,0.084 -0.024,0.147 -0.051,0.197 -0.027,0.049 -0.06,0.09 -0.098,0.118 -0.039,0.03 -0.08,0.056 -0.125,0.073 -0.046,0.02 -0.091,0.036 -0.138,0.057 -0.032,0.012 -0.059,0.025 -0.08,0.04 -0.021,0.017 -0.038,0.028 -0.051,0.046 -0.012,0.019 -0.022,0.039 -0.028,0.061 -0.007,0.023 -0.012,0.051 -0.016,0.078 l -0.495,-0.047 c 10e-4,-0.027 0.004,-0.062 0.008,-0.104 0.004,-0.043 0.013,-0.086 0.029,-0.129 0.014,-0.043 0.037,-0.085 0.068,-0.126 0.032,-0.041 0.074,-0.072 0.129,-0.095 0.023,-0.01 0.049,-0.02 0.078,-0.028 0.03,-0.01 0.058,-0.021 0.086,-0.032 0.027,-0.014 0.051,-0.028 0.071,-0.051 0.019,-0.018 0.03,-0.044 0.034,-0.072 0.008,-0.092 -0.039,-0.142 -0.142,-0.153 -0.066,-0.006 -0.113,0.015 -0.145,0.058 -0.031,0.044 -0.047,0.098 -0.047,0.155 l -0.56,-0.055 c 0.012,-0.084 0.038,-0.166 0.074,-0.242 0.036,-0.08 0.089,-0.147 0.153,-0.207 0.064,-0.06 0.145,-0.104 0.242,-0.135 0.095,-0.031 0.209,-0.039 0.341,-0.026 0.132,0.012 0.24,0.04 0.324,0.084 0.087,0.044 0.154,0.094 0.204,0.155 0.051,0.06 0.087,0.125 0.11,0.191 z m -1.107,0.964 0.558,0.056 -0.051,0.528 -0.557,-0.054 z M 3.407,4.021 2.845,3.966 C 2.858,3.883 2.884,3.803 2.92,3.724 2.958,3.646 3.008,3.577 3.073,3.517 3.137,3.459 3.218,3.413 3.314,3.383 3.41,3.352 3.524,3.344 3.656,3.356 3.787,3.369 3.896,3.397 3.983,3.441 4.068,3.483 4.136,3.535 4.186,3.596 4.236,3.656 4.27,3.719 4.29,3.787 4.309,3.855 4.317,3.917 4.316,3.98 4.308,4.061 4.29,4.126 4.264,4.176 4.237,4.224 4.204,4.263 4.167,4.295 4.129,4.323 4.087,4.347 4.042,4.366 3.996,4.384 3.95,4.404 3.904,4.422 3.872,4.436 3.845,4.448 3.825,4.463 3.803,4.478 3.785,4.491 3.773,4.509 3.762,4.526 3.752,4.546 3.745,4.569 3.738,4.591 3.733,4.619 3.73,4.646 L 3.234,4.6 C 3.236,4.573 3.238,4.539 3.243,4.497 3.247,4.454 3.256,4.412 3.271,4.367 3.287,4.325 3.309,4.283 3.34,4.242 3.371,4.201 3.413,4.171 3.469,4.146 3.491,4.139 3.517,4.129 3.546,4.119 3.576,4.11 3.604,4.098 3.633,4.085 3.66,4.073 3.684,4.056 3.704,4.036 3.724,4.018 3.734,3.992 3.737,3.962 3.746,3.87 3.7,3.82 3.596,3.809 3.531,3.803 3.483,3.822 3.452,3.866 3.421,3.91 3.406,3.962 3.407,4.021 Z M 3.188,4.751 3.745,4.806 3.692,5.336 3.135,5.281 Z m 1.377,10.559 -1.392,0.4 -0.381,-1.324 1.392,-0.4 z M 1.219,12.824 C 1.171,12.609 1.157,12.392 1.167,12.169 1.182,11.945 1.238,11.733 1.34,11.53 1.438,11.327 1.592,11.14 1.792,10.974 1.994,10.807 2.26,10.678 2.59,10.581 c 0.325,-0.094 0.612,-0.127 0.86,-0.105 0.246,0.022 0.46,0.082 0.635,0.179 0.178,0.096 0.322,0.218 0.433,0.36 0.111,0.147 0.194,0.291 0.246,0.434 0.059,0.206 0.079,0.381 0.063,0.522 -0.017,0.143 -0.057,0.268 -0.12,0.379 -0.062,0.109 -0.138,0.208 -0.23,0.294 -0.091,0.088 -0.183,0.176 -0.278,0.265 -0.064,0.064 -0.116,0.121 -0.153,0.176 -0.037,0.053 -0.063,0.105 -0.077,0.159 -0.014,0.053 -0.019,0.109 -0.013,0.17 0.005,0.06 0.02,0.13 0.041,0.206 L 2.759,13.975 C 2.736,13.91 2.709,13.826 2.681,13.723 2.648,13.616 2.63,13.503 2.625,13.383 2.62,13.264 2.634,13.142 2.673,13.015 2.708,12.888 2.781,12.772 2.89,12.664 2.937,12.62 2.989,12.573 3.051,12.52 3.115,12.47 3.173,12.416 3.225,12.359 3.28,12.301 3.321,12.24 3.349,12.173 3.381,12.107 3.383,12.038 3.362,11.961 3.297,11.735 3.135,11.657 2.876,11.732 c -0.16,0.044 -0.258,0.136 -0.292,0.271 -0.032,0.136 -0.023,0.274 0.034,0.419 z m 15.067,-9.21 0.381,1.323 -1.392,0.4 -0.38,-1.323 z M 13.322,2.452 C 13.275,2.237 13.259,2.02 13.272,1.796 c 0.014,-0.224 0.07,-0.437 0.17,-0.64 0.1,-0.202 0.252,-0.388 0.454,-0.555 0.2,-0.166 0.467,-0.297 0.797,-0.392 0.325,-0.094 0.612,-0.128 0.86,-0.107 0.247,0.024 0.459,0.085 0.637,0.18 0.178,0.095 0.322,0.216 0.434,0.362 0.111,0.144 0.191,0.288 0.246,0.433 0.059,0.206 0.076,0.38 0.062,0.521 -0.019,0.143 -0.058,0.269 -0.121,0.38 -0.062,0.109 -0.138,0.207 -0.23,0.293 -0.09,0.087 -0.184,0.176 -0.275,0.266 -0.068,0.063 -0.118,0.119 -0.156,0.175 -0.037,0.054 -0.062,0.107 -0.077,0.16 -0.015,0.051 -0.019,0.108 -0.015,0.17 0.008,0.06 0.021,0.13 0.043,0.205 L 14.863,3.602 C 14.84,3.537 14.812,3.452 14.783,3.349 14.751,3.243 14.733,3.131 14.728,3.01 14.724,2.891 14.738,2.769 14.775,2.643 14.811,2.516 14.884,2.399 14.993,2.29 15.04,2.247 15.093,2.201 15.155,2.148 15.217,2.096 15.274,2.042 15.329,1.987 15.382,1.929 15.425,1.868 15.452,1.801 15.483,1.734 15.485,1.664 15.466,1.588 15.4,1.361 15.238,1.285 14.98,1.356 14.82,1.403 14.722,1.494 14.689,1.629 14.656,1.765 14.666,1.905 14.722,2.048 Z M 7.677,18 6.612,17.8 c 0.041,-0.159 0.103,-0.31 0.187,-0.455 0.083,-0.142 0.191,-0.265 0.326,-0.367 0.134,-0.101 0.298,-0.174 0.487,-0.217 0.189,-0.044 0.41,-0.043 0.661,0.004 0.25,0.046 0.452,0.119 0.609,0.217 0.157,0.1 0.278,0.211 0.364,0.332 0.086,0.124 0.142,0.256 0.168,0.389 0.026,0.133 0.032,0.256 0.018,0.369 -0.028,0.154 -0.073,0.277 -0.132,0.367 -0.06,0.092 -0.127,0.159 -0.206,0.215 -0.079,0.051 -0.162,0.09 -0.252,0.115 -0.09,0.028 -0.181,0.057 -0.273,0.084 -0.064,0.02 -0.118,0.041 -0.161,0.066 -0.042,0.021 -0.078,0.047 -0.105,0.079 -0.025,0.029 -0.047,0.065 -0.065,0.106 -0.016,0.043 -0.03,0.095 -0.041,0.151 L 7.254,19.076 C 7.261,19.027 7.271,18.961 7.286,18.883 7.3,18.802 7.327,18.721 7.363,18.637 7.399,18.556 7.45,18.48 7.517,18.408 7.584,18.336 7.671,18.283 7.779,18.246 7.825,18.232 7.876,18.223 7.935,18.208 7.995,18.193 8.049,18.177 8.105,18.156 8.159,18.137 8.208,18.111 8.25,18.076 8.291,18.042 8.317,17.998 8.329,17.935 8.361,17.764 8.279,17.66 8.082,17.623 7.96,17.6 7.863,17.628 7.797,17.705 7.729,17.787 7.689,17.885 7.677,18 Z m -0.539,1.367 1.06,0.197 -0.188,1.009 -1.06,-0.198 z"
   id="path167" />

</g>
      <g
         id="g171">
</g>
      <g
         id="g173">
</g>
      <g
         id="g175">
</g>
      <g
         id="g177">
</g>
      <g
         id="g179">
</g>
      <g
         id="g181">
</g>
      <g
         id="g183">
</g>
      <g
         id="g185">
</g>
      <g
         id="g187">
</g>
      <g
         id="g189">
</g>
      <g
         id="g191">
</g>
      <g
         id="g193">
</g>
      <g
         id="g195">
</g>
      <g
         id="g197">
</g>
      <g
         id="g199">
</g>
    </g>
    <text
       xml:space="preserve"
       style="font-style:normal;font-weight:normal;font-size:21.3333px;line-height:0.95;font-family:sans-serif;fill:#000000;fill-opacity:1;stroke:none"
       x="105.62173"
       y="197.08029"
       id="text233"><tspan
         sodipodi:role="line"
         id="tspan231"
         x="105.62173"
         y="197.08029"
         style="font-style:normal;font-variant:normal;font-weight:bold;font-stretch:normal;font-size:21.3333px;font-family:sans-serif;-inkscape-font-specification:'sans-serif Bold'">Signal 9</tspan></text>
  </g>
</svg>
